<svg id="Layer_1" data-name="Layer 1" xmlns="http://www.w3.org/2000/svg" viewBox="0 0 311.89 300"><defs><style>.cls-1{fill:#575756;}.cls-2{fill:#1d1d1b;}</style></defs><title>ISRO</title><g id="Group_21653" data-name="Group 21653"><path id="Path_26807" data-name="Path 26807" class="cls-1" d="M299.52,217.35H289.27a6.86,6.86,0,0,1-6.87-6.87V201.8h10.25a6.86,6.86,0,0,1,6.87,6.87ZM275.36,193.2h-1.75A32.71,32.71,0,0,0,306.28,226h1.65A32.76,32.76,0,0,0,275.36,193.2Z"/><path id="Path_26808" data-name="Path 26808" class="cls-1" d="M170.6,181.15v6.65h38.66c-15,0-20.51,20.55-20.51,20.55,31.22,0,31.07,10.35,31.07,10.35H197.15l-7.55,7.55h26.31c12.36-8.95,11.31-14,11.31-14a6.86,6.86,0,0,0-.5-2.65A15.65,15.65,0,0,0,215.63,202,69.24,69.24,0,0,0,199,200.35l1.6-2.55a7.15,7.15,0,0,1,7-4.14,64.28,64.28,0,0,1,15.31,6.65l7.51-7.85a89.33,89.33,0,0,0-8.61-4.65h90.06v-6.66Z"/><rect id="Rectangle_5116" data-name="Rectangle 5116" class="cls-1" x="175.55" y="193.05" width="10.05" height="33.25"/><path id="Path_26809" data-name="Path 26809" class="cls-1" d="M262.21,194.3s-7.21-2.5-17.47,6.87v-8.12h-10v33.22h10V203.6s11-5.3,15,2.55a15.34,15.34,0,0,1,1,7.25l8-7.65S269.46,196.1,262.21,194.3Z"/><circle id="Ellipse_1662" data-name="Ellipse 1662" class="cls-1" cx="180.61" cy="173.05" r="5.5"/><path id="Path_26810" data-name="Path 26810" class="cls-2" d="M95,50.45,71.14,45,64,59.05,87.9,64.4Z"/><path id="Path_26811" data-name="Path 26811" class="cls-2" d="M117.22,71.25l7-14-24-5.6-7.05,14Z"/><path id="Path_26812" data-name="Path 26812" class="cls-2" d="M178.16,69.65l-6.71,14.1,24.07,5.55,6.8-14Z"/><path id="Path_26813" data-name="Path 26813" class="cls-2" d="M207.37,76.45l-6.87,14,24.11,5.6,6.81-14Z"/><path id="Path_26814" data-name="Path 26814" class="cls-2" d="M129.93,174.7a27.1,27.1,0,0,0-3.16-5.85,14.57,14.57,0,0,0-4.3-3.9,14.24,14.24,0,0,0-5.65-1.65,14.77,14.77,0,0,0-2.66,0,3.69,3.69,0,0,0-1,0l-3,7.55c13.11-3.62,16.11,10,16.11,10H0v6.65H30v3.7a27,27,0,0,0-7.6-1.44c-18.66,0-18.56,15.6-18.56,15.6a16.94,16.94,0,0,0,2.65,8.7l1.15-.6a23.75,23.75,0,0,1,9-1.75,26.75,26.75,0,0,1,12.11,1.69,8.55,8.55,0,0,1,3.35,2.4,3.84,3.84,0,0,1,0,4.7,8.9,8.9,0,0,1-15.46-6.45L8.16,220a18.16,18.16,0,0,0,10.61,7.55l6.55,10h10l-7.45-10c8.85,0,14.16-4.55,14.16-11.7a8.71,8.71,0,0,0-2.11-5.35,21.9,21.9,0,0,0-17.21-7.3,35,35,0,0,0-14.35,3,10.63,10.63,0,0,1,5.1-7.7,23.53,23.53,0,0,1,18.16,0,23.93,23.93,0,0,1,8.5,4.5V188h20l-8.25,3.79a21.26,21.26,0,0,1,6,13.86c0,5-3.25,4.64-3.25,4.64l-6.66-8.55-4.34,3.8,14,20.9h9.46l-10-12.6a8.14,8.14,0,0,0,7.21-3.5h0a13.37,13.37,0,0,0,14.61-1v17.1h10V187.8h21.37L102,191.6a21.55,21.55,0,0,1,6,13.85c0,5-3.31,4.65-3.31,4.65l-6.15-8.55-4.33,3.8,14,20.9h9.46l-10-12.6c10,0,9.31-11.8,9.31-11.8a20.29,20.29,0,0,0-4.7-14h11.7v38.45h10V187.8h5v-6.66h-7.25a32.54,32.54,0,0,0-1.75-6.45Zm-50.78,25A12.91,12.91,0,0,1,66,207.25h0a16.56,16.56,0,0,0,.65-5,20.31,20.31,0,0,0-4.7-14.05H79.15Z"/><path id="Path_26815" data-name="Path 26815" class="cls-2" d="M139,100.4,163.1,300l.45-300L77.2,174.7Z"/></g></svg>