<svg width="24" height="24" viewBox="0 0 24 24" fill="none" xmlns="http://www.w3.org/2000/svg">
<path d="M15.5841 7.93701C15.2912 7.64412 14.8164 7.64412 14.5235 7.93701C14.2306 8.22991 14.2306 8.70478 14.5235 8.99767C14.8164 9.29057 15.2912 9.29057 15.5841 8.99767C15.877 8.70478 15.877 8.22991 15.5841 7.93701Z" fill="white"/>
<path fill-rule="evenodd" clip-rule="evenodd" d="M20.447 3.18263L19.6511 10.3456L16.8981 13.0311L18.1976 17.4675L14.2315 21.4336L11.2948 18.4969L8.97721 20.7577L2.6132 14.3937L4.93081 12.1329L2.2107 9.4128L6.17682 5.44667L10.49 6.71012L13.291 3.97774L20.447 3.18263ZM12.0107 17.7986L16.0876 13.8217L17.0712 17.1796L14.2315 20.0194L12.0107 17.7986ZM3.62491 9.4128L5.64669 11.4346L9.66843 7.51149L6.46469 6.57302L3.62491 9.4128ZM13.7432 4.93365L4.03625 14.4025L8.98594 19.3522L18.6968 9.87955L19.3151 4.31455L13.7432 4.93365Z" fill="white"/>
</svg>
